<?xml version="1.0" encoding="utf-8"?>
<!-- Generator: Adobe Illustrator 22.0.0, SVG Export Plug-In . SVG Version: 6.00 Build 0)  -->
<svg version="1.1" id="Layer_1" xmlns="http://www.w3.org/2000/svg" xmlns:xlink="http://www.w3.org/1999/xlink" x="0px" y="0px"
	 width="96px" height="32px" viewBox="0 0 96 32" enable-background="new 0 0 96 32" xml:space="preserve">
<path d="M53.5,7h-11C40.6,7,39,8.6,39,10.5v3.7v7.4c0,1.9,1.6,3.5,3.5,3.5h11c1.9,0,3.5-1.6,3.5-3.5v-7.4v-3.7C57,8.6,55.4,7,53.5,7
	z M54.5,9.1l0.4,0v0.4v2.7l-3,0l0-3.1L54.5,9.1z M45.4,14.2c0.6-0.8,1.5-1.3,2.6-1.3s2,0.5,2.6,1.3c0.4,0.5,0.6,1.2,0.6,1.8
	c0,1.7-1.4,3.2-3.2,3.2s-3.2-1.4-3.2-3.2C44.8,15.3,45.1,14.7,45.4,14.2z M55.2,21.5c0,1-0.8,1.7-1.7,1.7h-11c-1,0-1.7-0.8-1.7-1.7
	v-7.4h2.7c-0.2,0.6-0.4,1.2-0.4,1.8c0,2.7,2.2,4.9,4.9,4.9c2.7,0,4.9-2.2,4.9-4.9c0-0.7-0.1-1.3-0.4-1.8h2.7V21.5z"/>
<path d="M11.7,13h1.9v-1.8c0-0.8,0-2,0.6-2.8C14.7,7.5,15.6,7,17,7c2.3,0,3.3,0.3,3.3,0.3l-0.5,2.8c0,0-0.8-0.2-1.5-0.2
	c-0.7,0-1.4,0.3-1.4,1V13h3l-0.2,2.7H17V25h-3.5v-9.4h-1.9V13z"/>
<path d="M77,24.3h-3.5V13H77V24.3z M75.1,11.6L75.1,11.6c-1.3,0-2.1-0.9-2.1-1.9c0-1.1,0.8-1.9,2.1-1.9c1.3,0,2.1,0.8,2.1,1.9
	C77.3,10.8,76.4,11.6,75.1,11.6z M91,24.3h-4v-5.8c0-1.5-0.6-2.6-2-2.6c-1,0-1.6,0.7-1.9,1.4C83,17.5,83,17.9,83,18.2v6.1h-3.9
	c0,0,0.1-10.3,0-11.2H83v1.8c0.2-0.8,1.5-1.9,3.5-1.9c2.5,0,4.5,1.6,4.5,5.1V24.3z"/>
</svg>
